/* XPM */
static char *e7d68df89e5a4dbdabfd35f728b11cdcVZuKxlIXZXzTFQqx[] = {
/* columns rows colors chars-per-pixel */
"16 16 8 1 ",
"  c None",
". c #21110D",
"X c #181C32",
"o c #503625",
"O c #114517",
"+ c #347B2C",
"@ c #755338",
"# c #53A03B",
/* pixels */
"##########+OO.X ",
"########++OO.XX ",
"#########+Oo.X  ",
"##########+Oo.  ",
"###########+O.  ",
"###########+O.X ",
"###########+O.X ",
"###########+O.X ",
"##########++Oo. ",
"########+++Ooo. ",
"#########+O@@o.X",
"##########+O@@.X",
"#########++O@@.X",
"#########OOo@@.X",
"##########+Oo.XX",
"###########OO.XX"
};
