/* XPM */
static char *s47qfeq1ZFS_png[] = {
/* columns rows colors chars-per-pixel */
"16 16 5 1 ",
"  c None",
". c #21110D",
"X c #181C32",
"o c #347B2C",
"O c #53A03B",
/* pixels */
"                ",
"                ",
"                ",
"..     ...      ",
"oo...X.ooo.XX...",
"oooOo..oOOO..oOO",
"OoOOOoOoOOOOOoOO",
"OOOOOOOOOOOOOOoO",
"OOOOOOOOOOOOOOOO",
"OOOOOOOOOOOOOOOO",
"OOOOOOOOOOOOOOOO",
"OOOOOOOOOOOOOOOO",
"OOOOOOOOOOOOOOOO",
"OOOOOOOOOOOOOOOO",
"OOOOOOOOOOOOOOOO",
"OOOOOOOOOOOOOOOO"
};
