/* XPM */
static char *s47s51Y6kPF_png[] = {
/* columns rows colors chars-per-pixel */
"16 16 6 1 ",
"  c None",
". c #21110D",
"X c #181C32",
"o c #114517",
"O c #347B2C",
"+ c #53A03B",
/* pixels */
"                ",
"                ",
" ...            ",
".OOO.. ..       ",
"OO+++O.OO.      ",
"O+++++O++O.     ",
"O++++++++O.     ",
"++++++++O..     ",
"+++++++++O..    ",
"+++++++++Oo.    ",
"++++++++OOo.X   ",
"++++++++++Oo.   ",
"+++++++++++O.X  ",
"++++++++++++o.  ",
"+++++++++++Oo.  ",
"+++++++++++Oo.X "
};
