/* XPM */
static char *e37096e7fa374df7ea684eea64ac5a589xQO4k1Lf3t1UEQ5[] = {
/* columns rows colors chars-per-pixel */
"16 16 7 1 ",
"  c None",
". c #21110D",
"X c #181C32",
"o c #503625",
"O c #114517",
"+ c #347B2C",
"@ c #53A03B",
/* pixels */
"                ",
"                ",
"                ",
"               .",
"         ...  .+",
"        .+++..+@",
"       .++@@@+@@",
"       .+@@@@@@@",
"      .+@@@@@@@@",
"     .O++@@@@@@@",
"     .+@@@@@@@@@",
"    .O@@@@@@@@@@",
"   X.+@@@@@@@@@@",
"   .O+@@@@@@@@@@",
"  X.oO+@@@@@@@@@",
"  X.ooO+@@@@@@@@"
};
