/* XPM */
static char *_77adebe17dc4317dbffe1c5635d7549EVLeElGNATh5lvB1[] = {
/* columns rows colors chars-per-pixel */
"16 16 9 1 ",
"  c None",
". c #21110D",
"X c #342319",
"o c #181C32",
"O c #503625",
"+ c #114517",
"@ c #347B2C",
"# c #755338",
"$ c #53A03B",
/* pixels */
"$$$$$$$$$$$$$$$$",
"$$@$$$$@$$$$$@$$",
"$@+@$$@@$$$$@+$$",
"@+X+@@++@$$@++@$",
"@+XO++O#++@@+#+@",
"+#OO#####O++###+",
"##O#############",
"################",
"###########O####",
"###########O####",
"###########O####",
"##O########OO###",
"#O.#######OO.O##",
"...O####....o...",
"ooo.....oooooooo",
"ooooooooo      o"
};
