/* XPM */
static char *_20603b0a2594946efb9c10be41d95f4wwKrqIk5E8ypoFXG[] = {
/* columns rows colors chars-per-pixel */
"16 16 8 1 ",
"  c None",
". c #21110D",
"X c #181C32",
"o c #503625",
"O c #114517",
"+ c #347B2C",
"@ c #755338",
"# c #53A03B",
/* pixels */
"#####+####+O@o.X",
"##+##++##++O@@.X",
"#+O#++O+++Oo@@.X",
"+OO++OOOOO@oo@.X",
"OO@OOo@@@@@@@o.X",
"O@@@@@@@@@@@@o.X",
"@@@@@@@@@o@@@@.X",
"@@@@@@@@@o@@@@.X",
"@@@@@@@@@oo@@@.X",
"@@@@@@@@@@o@@@. ",
"@@@@@@@@@@o@@o. ",
"@@@o@@@@@@ooo.  ",
"@@@o@@@@@ooo..  ",
"@@o..@@@....    ",
"...XX...XXX     ",
"XXXXXXXXX       "
};
