/* XPM */
static char *_a772744d32a4876f2693e723d64402eZpr6HC9CGkr6WBVw[] = {
/* columns rows colors chars-per-pixel */
"16 16 8 1 ",
"  c None",
". c #21110D",
"X c #181C32",
"o c #503625",
"O c #114517",
"+ c #347B2C",
"@ c #755338",
"# c #53A03B",
/* pixels */
"  X.ooO+########",
"  X.o@O++##+####",
"  X.@@oO+##O####",
" XX.@@ooO++O+###",
" XX.@@o@oOOoO+++",
" XX.@oo@@@@@oOOO",
" XX.oo@@@@@@@@@@",
" XX.o@@@@@@@@@@@",
"  X.o@@@@@@@@@@@",
"  X.o@@@@@@@@@@@",
"  XX.@@@@@@@@@@@",
"   X.@@@@@@@o@@@",
"   XX.@@@@@@o@@@",
"    XX..@@@o..@@",
"     XXX....XX..",
"       XXXXXXXXX"
};
