/* XPM */
static char *_c8c5aee496b4e19c645ba94eb4627bd7RE7sv3azCuSXk2D[] = {
/* columns rows colors chars-per-pixel */
"16 16 8 1 ",
"  c None",
". c #21110D",
"X c #181C32",
"o c #503625",
"O c #114517",
"+ c #347B2C",
"@ c #755338",
"# c #53A03B",
/* pixels */
"  X.ooO+########",
"  XX.oO++#######",
"   X.OOO+#######",
"   .oO+#########",
"   .O++#########",
"  X.O+##########",
"  X.O+##########",
"  X.O+##########",
"  .oO++#########",
"  .ooO+++#######",
" X.o@@O+########",
" X.@@O++########",
" X.@@O+#########",
" X.@@O+#########",
" XX.oO+#########",
" XX.ooOO+#######"
};
