/* XPM */
static char *_b594164f41e48c0c67acd4607447ddfJz5Nto5y6Mk0c2o1[] = {
/* columns rows colors chars-per-pixel */
"16 16 47 1 ",
"  c black",
". c #163A13",
"X c #1D4C15",
"o c #1E4E16",
"O c #1F5517",
"+ c #395832",
"@ c #3DA90E",
"# c #349326",
"$ c #3B8E37",
"% c #43B735",
"& c #48B23A",
"* c #4DC537",
"= c #4CCC3C",
"- c #488C45",
"; c #508F4C",
": c #4D9148",
"> c #51984E",
", c #569856",
"< c #4CB341",
"1 c #5FBC4F",
"2 c #66B757",
"3 c #65BC56",
"4 c #68A167",
"5 c #5ED14E",
"6 c #67CF55",
"7 c #60C559",
"8 c #67D754",
"9 c #68D058",
"0 c #71DC5E",
"q c #6ECA66",
"w c #79CE67",
"e c #7DCD6D",
"r c #81DE6F",
"t c #85DD74",
"y c #8AD284",
"u c #94D283",
"i c #94D68E",
"p c #92D88C",
"a c #9EC79D",
"s c #A5CC9F",
"d c #A5D299",
"f c #AED1A7",
"g c #BED2BB",
"h c #C2E2BC",
"j c #C4D2C0",
"k c #D2D2D2",
"l c gainsboro",
/* pixels */
"ss@@<<aakkttee;;",
"ss@@<<aakkttee;;",
"##77%%qq::0033kk",
"##77%%qq::0033kk",
"**OO++pp,,oo++ll",
"**OO++pp,,oo++ll",
"==oo  66&&  ..ww",
"==oo  66&&  ..ww",
"yy22ppoOoojj--55",
"yy22ipXoXXjj--55",
"sd>>++    OO88gg",
"dd>>++    OO88gg",
"hh44        11>>",
"hh44        11>>",
"88rr..uuffXX$$99",
"88rr..uuffoo$$99"
};
