/* XPM */
static char *result[] = {
/* columns rows colors chars-per-pixel */
"16 16 11 1 ",
"  c #09070C",
". c #1A1824",
"X c #352535",
"o c #45283C",
"O c #8F563B",
"+ c #AE7C3B",
"@ c #A46644",
"# c #C5963B",
"$ c #DDBD3B",
"% c #FBF236",
"& c white",
/* pixels */
"                ",
" +#+#+O.X.@+##+ ",
" ####%#OXX.O+## ",
" #+OO$%#.$&%O#+ ",
" +O%&O%$.%@&O## ",
" @.&@O%#X$OO$%+ ",
" .X$%$#XX#%%%#O ",
" XX..XXooX#$#O. ",
" .O#$#XooXX..XX ",
" O#%%%#XX#$%$X. ",
" +%$OO$X#%O@&.@ ",
" ##O&@%.$%O&%O+ ",
" +#O%&$.#%$OO+# ",
" ##+O.XXO#%#### ",
" +##+@.X.O+#+#+ ",
"                "
};
