/* XPM */
static char *d740878ed4b64ae8f6ca8175af190678nOO1Pa3J64qrRlsr[] = {
/* columns rows colors chars-per-pixel */
"16 16 2 1 ",
"  c magenta",
". c black",
/* pixels */
"        ........",
"        ........",
"        ........",
"        ........",
"        ........",
"        ........",
"        ........",
"        ........",
"........        ",
"........        ",
"........        ",
"........        ",
"........        ",
"........        ",
"........        ",
"........        "
};
