/* XPM */
static char *_3e86bd69f744662d4ec0b7bd33767aevX00wYObGCixltHM[] = {
/* columns rows colors chars-per-pixel */
"16 16 5 1 ",
"  c black",
". c #FF8040",
"X c white",
"o c blue",
"O c #804000",
/* pixels */
"                ",
"                ",
"                ",
"                ",
"  ............  ",
"  ............  ",
"................",
"................",
".ooXXX....XXXoo.",
".ooXXX....XXXoo.",
"......OOOO......",
"......OOOO......",
"....  ....  ....",
"....  ....  ....",
"....        ....",
"....        ...."
};
