/* XPM */
static char *ea44de4288484972b13c584564fa63e1FTevsjvoHEfMuHzr[] = {
/* columns rows colors chars-per-pixel */
"16 16 48 1 ",
"  c #324BF3",
". c #2E43F4",
"X c #2C3FF4",
"o c #2C3EF4",
"O c #2D40F4",
"+ c #2D3FF4",
"@ c #2D41F4",
"# c #324AF3",
"$ c #3249F3",
"% c #3149F3",
"& c #2F44F4",
"* c #2E41F4",
"= c #3148F4",
"- c #3957F3",
"; c #3C5AF2",
": c #2C40F4",
"> c #2C3DF4",
", c #2D3EF4",
"< c #3147F4",
"1 c #334BF3",
"2 c #3048F3",
"3 c #2B3DF4",
"4 c #3551F3",
"5 c #3046F4",
"6 c #2B3CF4",
"7 c #2D42F4",
"8 c #3045F4",
"9 c #2B3EF4",
"0 c #2E42F4",
"q c #3147F3",
"w c #3550F3",
"e c #3753F3",
"r c #3044F4",
"t c #3047F4",
"y c #2E44F4",
"u c #334CF3",
"i c #3149F4",
"p c #2F43F4",
"a c #344FF3",
"s c #2B3BF4",
"d c #2F45F4",
"f c #3856F3",
"g c #3146F4",
"h c #3959F3",
"j c #3A5AF3",
"k c #324AF4",
"l c #3249F4",
"z c white",
/* pixels */
" .XoO+@#$%&*.=-;",
"XO:@ #.XooXoo>,O",
"<12@O@o33O2=45*5",
"<@X3663333o:@7@.",
"X3ooo3X363oXoO8.",
"oo39o0q*X999XXXo",
"*XX.X:@O0&OO%we<",
"*XX:@rt&OXoX@yui",
"8**08.*O**pua=% ",
"&@o336s63XX7p<5u",
"o33666666663X0pO",
"66ss63333o36ss6s",
"ddXooX**XX93s66o",
"&*3663XX*0*@.*XO",
"3333399Xp<5ifgX9",
"XXXX@&d=whjkl=*O"
};
